<?xml version="1.0" encoding="utf-8"?>
<!-- Generator: Adobe Illustrator 27.2.0, SVG Export Plug-In . SVG Version: 6.00 Build 0)  -->
<svg version="1.1" id="Layer_1" xmlns="http://www.w3.org/2000/svg" xmlns:xlink="http://www.w3.org/1999/xlink" x="0px" y="0px"
	 viewBox="0 0 25 25" style="enable-background:new 0 0 25 25;" xml:space="preserve">
<path d="M12.3,0.5C5.6,0.5,0.5,5.7,0.5,12.6c0,5.5,3.4,10.2,8.2,11.9c0.6,0.1,0.8-0.3,0.8-0.6c0-0.3,0-2,0-3c0,0-3.4,0.7-4.1-1.5
	c0,0-0.6-1.4-1.3-1.8c0,0-1.1-0.8,0.1-0.8c0,0,1.2,0.1,1.9,1.3c1.1,1.9,2.8,1.4,3.5,1c0.1-0.8,0.4-1.3,0.8-1.7
	c-2.7-0.3-5.4-0.7-5.4-5.5c0-1.4,0.4-2,1.1-2.9C5.9,8.7,5.5,7.4,6.2,5.6C7.2,5.3,9.5,7,9.5,7c1-0.3,2-0.4,3-0.4s2.1,0.1,3,0.4
	c0,0,2.3-1.7,3.3-1.3c0.7,1.7,0.3,3,0.1,3.4c0.8,0.9,1.2,1.6,1.2,2.9c0,4.8-2.9,5.2-5.6,5.5c0.4,0.4,0.8,1.1,0.8,2.3
	c0,1.7,0,3.7,0,4.1c0,0.3,0.2,0.7,0.8,0.6c4.8-1.6,8.1-6.4,8.1-11.9C24.5,5.7,19.1,0.5,12.3,0.5z"/>
</svg>
