<?xml version="1.0" encoding="utf-8"?>
<!-- Generator: Adobe Illustrator 27.2.0, SVG Export Plug-In . SVG Version: 6.00 Build 0)  -->
<svg version="1.1" id="Layer_1" xmlns="http://www.w3.org/2000/svg" xmlns:xlink="http://www.w3.org/1999/xlink" x="0px" y="0px"
	 viewBox="0 0 25 25" style="enable-background:new 0 0 25 25;" xml:space="preserve">
<path d="M22.6,0.5h-20c-1.1,0-2.1,0.8-2.1,1.9v20.1c0,1.1,1,2.1,2.1,2.1h20c1.1,0,1.9-1,1.9-2.1V2.4C24.5,1.3,23.7,0.5,22.6,0.5z
	 M7.9,20.5H4.5V9.8h3.4V20.5z M6.3,8.2L6.3,8.2c-1.1,0-1.8-0.8-1.8-1.8c0-1,0.7-1.8,1.9-1.8s1.8,0.8,1.8,1.8
	C8.2,7.4,7.5,8.2,6.3,8.2L6.3,8.2z M20.5,20.5h-3.4v-5.8c0-1.4-0.5-2.4-1.7-2.4c-1,0-1.5,0.6-1.8,1.3c-0.1,0.2-0.1,0.5-0.1,0.8v6.1
	H10V9.8h3.4v1.5c0.5-0.7,1.3-1.7,3.1-1.7c2.3,0,4,1.5,4,4.7L20.5,20.5z"/>
</svg>
